<svg width="100" height="100" xmlns="http://www.w3.org/2000/svg">
 <!-- Created with Method Draw - http://github.com/duopixel/Method-Draw/ -->
 <g>
  <title>Layer 1</title>
  <path id="svg_1" d="m50.48114,17.52289c-5.422753,5.425975 -7.53518,12.83235 -6.520829,19.878066l10.053347,-10.053349c0.012881,-0.016101 0.045082,-0.025761 0.051523,-0.038642c0.676234,-1.297726 1.494155,-2.540709 2.58257,-3.625904c5.712568,-5.719009 14.976975,-5.715789 20.699203,0c5.715788,5.709349 5.722228,14.980198 0.00644,20.702428c-1.094855,1.094855 -2.341058,1.909557 -3.642004,2.589011c-0.012881,0.00644 -0.019321,0.019321 -0.032202,0.032202l-10.056567,10.056569c7.045715,1.017572 14.464969,-1.094855 19.887722,-6.51439c9.1195,-9.119502 9.113059,-23.90327 0,-33.022771c-9.12594,-9.119502 -23.909705,-9.119502 -33.029205,-0.00322zm-3.57438,56.243367c-0.673014,1.304166 -1.487715,2.547149 -2.57935,3.642004c-5.715788,5.712569 -14.993076,5.712569 -20.708864,0c-5.715788,-5.712569 -5.715788,-14.983418 0,-20.705648c1.091635,-1.088415 2.334618,-1.903116 3.632343,-2.57613c0.012881,-0.019321 0.016101,-0.038642 0.035422,-0.051523l10.050127,-10.056569c-7.042495,-1.017572 -14.455309,1.101296 -19.874842,6.51761c-9.116279,9.116281 -9.113059,23.90327 0,33.022771c9.12272,9.116281 23.906485,9.116281 33.029205,0c5.422753,-5.422754 7.54162,-12.83557 6.514388,-19.884506l-10.063007,10.056569c-0.00966,0.022541 -0.022541,0.028981 -0.035422,0.035422zm-16.47435,-10.246559l7.074697,7.074698c1.729227,1.729228 4.56297,1.729228 6.288977,0l26.733787,-26.733793c1.735667,-1.726007 1.735667,-4.562971 0.00644,-6.285758l-7.081137,-7.074698c-1.726007,-1.735668 -4.55975,-1.735668 -6.285757,-0.00644l-26.733787,26.737013c-1.732447,1.729228 -1.732447,4.562971 -0.00322,6.288978z" stroke-width="1.5" stroke="#BBBBBB" fill="#BBBBBB"/>
 </g>
</svg>