<svg width="100" height="100" xmlns="http://www.w3.org/2000/svg">
 <!-- Created with Method Draw - http://github.com/duopixel/Method-Draw/ -->
 <g>
  <title>Layer 1</title>
  <path transform="rotate(90 51.010494232177734,53.11962509155274) " stroke="#BBBBBB" id="svg_1" d="m15.64469,88.485419l0,-39.786515l0,0c0,-17.090488 13.854585,-30.94507 30.945085,-30.94507l0,0l0,0c8.207144,0 16.078147,3.260276 21.881482,9.063601c5.80333,5.803326 9.0636,13.674326 9.0636,21.881469l0,4.420725l8.841446,0l-17.682894,17.682903l-17.68291,-17.682903l8.841453,0l0,-4.420725c0,-7.324494 -5.937682,-13.262169 -13.262174,-13.262169l0,0l0,0c-7.324502,0 -13.262179,5.937675 -13.262179,13.262169l0,39.786515l-17.682908,0z" stroke-width="1.5" fill="#bbbbbb"/>
 </g>
</svg>